<mxfile host="app.diagrams.net" agent="Mozilla/5.0 (X11; Ubuntu; Linux x86_64; rv:138.0) Gecko/20100101 Firefox/138.0" version="27.0.4">
  <diagram name="第 1 页" id="odzhpiGNZsCS6kh2lJAy">
    <mxGraphModel dx="565" dy="331" grid="1" gridSize="10" guides="1" tooltips="1" connect="1" arrows="1" fold="1" page="1" pageScale="1" pageWidth="827" pageHeight="1169" math="0" shadow="0">
      <root>
        <mxCell id="0" />
        <mxCell id="1" parent="0" />
        <mxCell id="NBaIwqH9u7KzB3NyAWgl-2" value="PC" style="rounded=1;whiteSpace=wrap;html=1;fillColor=#dae8fc;strokeColor=#6c8ebf;" parent="1" vertex="1">
          <mxGeometry x="239" y="720" width="80" height="200" as="geometry" />
        </mxCell>
        <mxCell id="NBaIwqH9u7KzB3NyAWgl-3" value="" style="endArrow=classic;html=1;rounded=0;entryX=0;entryY=0.5;entryDx=0;entryDy=0;" parent="1" edge="1">
          <mxGeometry width="50" height="50" relative="1" as="geometry">
            <mxPoint x="170" y="900" as="sourcePoint" />
            <mxPoint x="240" y="900" as="targetPoint" />
          </mxGeometry>
        </mxCell>
        <mxCell id="NBaIwqH9u7KzB3NyAWgl-4" value="next_pc" style="text;html=1;align=center;verticalAlign=middle;whiteSpace=wrap;rounded=0;" parent="1" vertex="1">
          <mxGeometry x="179" y="885" width="51" height="10" as="geometry" />
        </mxCell>
        <mxCell id="NBaIwqH9u7KzB3NyAWgl-5" value="" style="endArrow=classic;html=1;rounded=0;entryX=0;entryY=0.5;entryDx=0;entryDy=0;" parent="1" edge="1">
          <mxGeometry width="50" height="50" relative="1" as="geometry">
            <mxPoint x="160" y="860" as="sourcePoint" />
            <mxPoint x="240" y="860" as="targetPoint" />
          </mxGeometry>
        </mxCell>
        <mxCell id="NBaIwqH9u7KzB3NyAWgl-6" value="ex_result" style="text;html=1;align=center;verticalAlign=middle;whiteSpace=wrap;rounded=0;" parent="1" vertex="1">
          <mxGeometry x="179" y="845" width="51" height="10" as="geometry" />
        </mxCell>
        <mxCell id="NBaIwqH9u7KzB3NyAWgl-7" value="" style="endArrow=classic;html=1;rounded=0;entryX=0;entryY=0.5;entryDx=0;entryDy=0;" parent="1" edge="1">
          <mxGeometry width="50" height="50" relative="1" as="geometry">
            <mxPoint x="120" y="830" as="sourcePoint" />
            <mxPoint x="240" y="830" as="targetPoint" />
          </mxGeometry>
        </mxCell>
        <mxCell id="NBaIwqH9u7KzB3NyAWgl-8" value="imm" style="text;html=1;align=center;verticalAlign=middle;whiteSpace=wrap;rounded=0;" parent="1" vertex="1">
          <mxGeometry x="179" y="814" width="51" height="10" as="geometry" />
        </mxCell>
        <mxCell id="NBaIwqH9u7KzB3NyAWgl-9" value="" style="endArrow=classic;html=1;rounded=0;entryX=0;entryY=0.5;entryDx=0;entryDy=0;" parent="1" edge="1">
          <mxGeometry width="50" height="50" relative="1" as="geometry">
            <mxPoint x="169" y="800" as="sourcePoint" />
            <mxPoint x="239" y="800" as="targetPoint" />
          </mxGeometry>
        </mxCell>
        <mxCell id="NBaIwqH9u7KzB3NyAWgl-10" value="jalr_jump" style="text;html=1;align=center;verticalAlign=middle;whiteSpace=wrap;rounded=0;" parent="1" vertex="1">
          <mxGeometry x="179" y="784" width="51" height="10" as="geometry" />
        </mxCell>
        <mxCell id="NBaIwqH9u7KzB3NyAWgl-12" value="" style="endArrow=classic;html=1;rounded=0;entryX=0;entryY=0.5;entryDx=0;entryDy=0;" parent="1" edge="1">
          <mxGeometry width="50" height="50" relative="1" as="geometry">
            <mxPoint x="169" y="768" as="sourcePoint" />
            <mxPoint x="239" y="768" as="targetPoint" />
          </mxGeometry>
        </mxCell>
        <mxCell id="NBaIwqH9u7KzB3NyAWgl-13" value="branch" style="text;html=1;align=center;verticalAlign=middle;whiteSpace=wrap;rounded=0;" parent="1" vertex="1">
          <mxGeometry x="179" y="752" width="51" height="10" as="geometry" />
        </mxCell>
        <mxCell id="NBaIwqH9u7KzB3NyAWgl-14" value="" style="endArrow=classic;html=1;rounded=0;entryX=0;entryY=0.5;entryDx=0;entryDy=0;" parent="1" edge="1">
          <mxGeometry width="50" height="50" relative="1" as="geometry">
            <mxPoint x="169" y="738" as="sourcePoint" />
            <mxPoint x="239" y="738" as="targetPoint" />
          </mxGeometry>
        </mxCell>
        <mxCell id="NBaIwqH9u7KzB3NyAWgl-15" value="jump" style="text;html=1;align=center;verticalAlign=middle;whiteSpace=wrap;rounded=0;" parent="1" vertex="1">
          <mxGeometry x="179" y="722" width="51" height="10" as="geometry" />
        </mxCell>
        <mxCell id="NBaIwqH9u7KzB3NyAWgl-16" value="" style="triangle;whiteSpace=wrap;html=1;rotation=90;fillColor=#f8cecc;strokeColor=#b85450;strokeWidth=0;" parent="1" vertex="1">
          <mxGeometry x="262" y="720" width="10" height="10" as="geometry" />
        </mxCell>
        <mxCell id="NBaIwqH9u7KzB3NyAWgl-17" value="" style="endArrow=classic;html=1;rounded=0;entryX=0;entryY=0.5;entryDx=0;entryDy=0;" parent="1" target="NBaIwqH9u7KzB3NyAWgl-16" edge="1">
          <mxGeometry width="50" height="50" relative="1" as="geometry">
            <mxPoint x="267" y="700" as="sourcePoint" />
            <mxPoint x="272" y="670" as="targetPoint" />
          </mxGeometry>
        </mxCell>
        <mxCell id="NBaIwqH9u7KzB3NyAWgl-18" value="clk" style="text;html=1;align=center;verticalAlign=middle;whiteSpace=wrap;rounded=0;" parent="1" vertex="1">
          <mxGeometry x="242" y="700" width="30" height="10" as="geometry" />
        </mxCell>
        <mxCell id="NBaIwqH9u7KzB3NyAWgl-19" value="" style="endArrow=classic;html=1;rounded=0;entryX=0;entryY=0.5;entryDx=0;entryDy=0;" parent="1" edge="1">
          <mxGeometry width="50" height="50" relative="1" as="geometry">
            <mxPoint x="297" y="700" as="sourcePoint" />
            <mxPoint x="297" y="720" as="targetPoint" />
          </mxGeometry>
        </mxCell>
        <mxCell id="NBaIwqH9u7KzB3NyAWgl-20" value="rstn" style="text;html=1;align=center;verticalAlign=middle;whiteSpace=wrap;rounded=0;" parent="1" vertex="1">
          <mxGeometry x="297" y="700" width="30" height="10" as="geometry" />
        </mxCell>
        <mxCell id="NBaIwqH9u7KzB3NyAWgl-21" value="IROM" style="rounded=1;whiteSpace=wrap;html=1;fillColor=#dae8fc;strokeColor=#6c8ebf;" parent="1" vertex="1">
          <mxGeometry x="242" y="960" width="80" height="60" as="geometry" />
        </mxCell>
        <mxCell id="NBaIwqH9u7KzB3NyAWgl-22" value="" style="endArrow=classic;html=1;rounded=0;exitX=0.25;exitY=1;exitDx=0;exitDy=0;fontStyle=1" parent="1" edge="1">
          <mxGeometry width="50" height="50" relative="1" as="geometry">
            <mxPoint x="280" y="920" as="sourcePoint" />
            <mxPoint x="280" y="960" as="targetPoint" />
          </mxGeometry>
        </mxCell>
        <mxCell id="NBaIwqH9u7KzB3NyAWgl-23" value="pc" style="text;html=1;align=center;verticalAlign=middle;whiteSpace=wrap;rounded=0;" parent="1" vertex="1">
          <mxGeometry x="254" y="930" width="30" height="10" as="geometry" />
        </mxCell>
        <mxCell id="NBaIwqH9u7KzB3NyAWgl-25" value="instruction" style="text;html=1;align=center;verticalAlign=middle;whiteSpace=wrap;rounded=0;" parent="1" vertex="1">
          <mxGeometry x="330" y="977" width="60" height="10" as="geometry" />
        </mxCell>
        <mxCell id="NBaIwqH9u7KzB3NyAWgl-26" value="" style="endArrow=classic;html=1;rounded=0;exitX=1;exitY=0.25;exitDx=0;exitDy=0;fontStyle=1" parent="1" source="NBaIwqH9u7KzB3NyAWgl-2" edge="1">
          <mxGeometry width="50" height="50" relative="1" as="geometry">
            <mxPoint x="370" y="799" as="sourcePoint" />
            <mxPoint x="340" y="770" as="targetPoint" />
          </mxGeometry>
        </mxCell>
        <mxCell id="NBaIwqH9u7KzB3NyAWgl-27" value="" style="endArrow=classic;html=1;rounded=0;exitX=1;exitY=0.75;exitDx=0;exitDy=0;fontStyle=1" parent="1" source="NBaIwqH9u7KzB3NyAWgl-2" edge="1">
          <mxGeometry width="50" height="50" relative="1" as="geometry">
            <mxPoint x="344.5" y="860" as="sourcePoint" />
            <mxPoint x="400" y="870" as="targetPoint" />
          </mxGeometry>
        </mxCell>
        <mxCell id="NBaIwqH9u7KzB3NyAWgl-28" value="pc_current" style="text;html=1;align=center;verticalAlign=middle;whiteSpace=wrap;rounded=0;" parent="1" vertex="1">
          <mxGeometry x="325" y="855" width="70" height="10" as="geometry" />
        </mxCell>
        <mxCell id="NBaIwqH9u7KzB3NyAWgl-29" value="pc" style="text;html=1;align=center;verticalAlign=middle;whiteSpace=wrap;rounded=0;" parent="1" vertex="1">
          <mxGeometry x="319" y="752" width="19.5" height="10" as="geometry" />
        </mxCell>
        <mxCell id="NBaIwqH9u7KzB3NyAWgl-30" value="Translate" style="rounded=1;whiteSpace=wrap;html=1;fillColor=#dae8fc;strokeColor=#6c8ebf;" parent="1" vertex="1">
          <mxGeometry x="520" y="720" width="80" height="200" as="geometry" />
        </mxCell>
        <mxCell id="NBaIwqH9u7KzB3NyAWgl-31" value="" style="endArrow=none;html=1;rounded=0;exitX=1;exitY=0.5;exitDx=0;exitDy=0;" parent="1" source="NBaIwqH9u7KzB3NyAWgl-21" edge="1">
          <mxGeometry width="50" height="50" relative="1" as="geometry">
            <mxPoint x="410" y="1007" as="sourcePoint" />
            <mxPoint x="480" y="990" as="targetPoint" />
          </mxGeometry>
        </mxCell>
        <mxCell id="NBaIwqH9u7KzB3NyAWgl-32" value="" style="edgeStyle=segmentEdgeStyle;endArrow=classic;html=1;curved=0;rounded=0;endSize=8;startSize=8;entryX=0;entryY=0.75;entryDx=0;entryDy=0;" parent="1" target="NBaIwqH9u7KzB3NyAWgl-30" edge="1">
          <mxGeometry width="50" height="50" relative="1" as="geometry">
            <mxPoint x="480" y="990" as="sourcePoint" />
            <mxPoint x="475" y="865" as="targetPoint" />
            <Array as="points">
              <mxPoint x="480" y="870" />
            </Array>
          </mxGeometry>
        </mxCell>
        <mxCell id="NBaIwqH9u7KzB3NyAWgl-33" value="" style="triangle;whiteSpace=wrap;html=1;rotation=90;fillColor=#f8cecc;strokeColor=#b85450;strokeWidth=0;" parent="1" vertex="1">
          <mxGeometry x="540" y="722" width="10" height="10" as="geometry" />
        </mxCell>
        <mxCell id="NBaIwqH9u7KzB3NyAWgl-34" value="" style="endArrow=classic;html=1;rounded=0;entryX=0;entryY=0.5;entryDx=0;entryDy=0;" parent="1" target="NBaIwqH9u7KzB3NyAWgl-33" edge="1">
          <mxGeometry width="50" height="50" relative="1" as="geometry">
            <mxPoint x="545" y="702" as="sourcePoint" />
            <mxPoint x="550" y="672" as="targetPoint" />
          </mxGeometry>
        </mxCell>
        <mxCell id="NBaIwqH9u7KzB3NyAWgl-35" value="clk" style="text;html=1;align=center;verticalAlign=middle;whiteSpace=wrap;rounded=0;" parent="1" vertex="1">
          <mxGeometry x="520" y="702" width="30" height="10" as="geometry" />
        </mxCell>
        <mxCell id="NBaIwqH9u7KzB3NyAWgl-36" value="" style="endArrow=classic;html=1;rounded=0;entryX=0;entryY=0.5;entryDx=0;entryDy=0;" parent="1" edge="1">
          <mxGeometry width="50" height="50" relative="1" as="geometry">
            <mxPoint x="575" y="702" as="sourcePoint" />
            <mxPoint x="575" y="722" as="targetPoint" />
          </mxGeometry>
        </mxCell>
        <mxCell id="NBaIwqH9u7KzB3NyAWgl-37" value="rstn" style="text;html=1;align=center;verticalAlign=middle;whiteSpace=wrap;rounded=0;" parent="1" vertex="1">
          <mxGeometry x="575" y="702" width="30" height="10" as="geometry" />
        </mxCell>
        <mxCell id="NBaIwqH9u7KzB3NyAWgl-38" value="" style="endArrow=classic;html=1;rounded=0;entryX=0;entryY=0.25;entryDx=0;entryDy=0;" parent="1" target="NBaIwqH9u7KzB3NyAWgl-30" edge="1">
          <mxGeometry width="50" height="50" relative="1" as="geometry">
            <mxPoint x="440" y="770" as="sourcePoint" />
            <mxPoint x="510" y="770" as="targetPoint" />
          </mxGeometry>
        </mxCell>
        <mxCell id="NBaIwqH9u7KzB3NyAWgl-39" value="jump" style="text;html=1;align=center;verticalAlign=middle;whiteSpace=wrap;rounded=0;" parent="1" vertex="1">
          <mxGeometry x="454" y="752" width="51" height="10" as="geometry" />
        </mxCell>
        <mxCell id="NBaIwqH9u7KzB3NyAWgl-49" value="" style="endArrow=classic;html=1;rounded=0;" parent="1" edge="1">
          <mxGeometry width="50" height="50" relative="1" as="geometry">
            <mxPoint x="600" y="770" as="sourcePoint" />
            <mxPoint x="660" y="770" as="targetPoint" />
          </mxGeometry>
        </mxCell>
        <mxCell id="NBaIwqH9u7KzB3NyAWgl-50" value="" style="endArrow=classic;html=1;rounded=0;" parent="1" edge="1">
          <mxGeometry width="50" height="50" relative="1" as="geometry">
            <mxPoint x="600" y="790" as="sourcePoint" />
            <mxPoint x="680" y="790" as="targetPoint" />
          </mxGeometry>
        </mxCell>
        <mxCell id="NBaIwqH9u7KzB3NyAWgl-51" value="" style="endArrow=classic;html=1;rounded=0;" parent="1" edge="1">
          <mxGeometry width="50" height="50" relative="1" as="geometry">
            <mxPoint x="600" y="810" as="sourcePoint" />
            <mxPoint x="800" y="810" as="targetPoint" />
          </mxGeometry>
        </mxCell>
        <mxCell id="NBaIwqH9u7KzB3NyAWgl-52" value="" style="endArrow=classic;html=1;rounded=0;entryX=0;entryY=0.25;entryDx=0;entryDy=0;" parent="1" edge="1">
          <mxGeometry width="50" height="50" relative="1" as="geometry">
            <mxPoint x="600" y="828.6" as="sourcePoint" />
            <mxPoint x="800" y="828.6" as="targetPoint" />
          </mxGeometry>
        </mxCell>
        <mxCell id="NBaIwqH9u7KzB3NyAWgl-53" value="" style="endArrow=classic;html=1;rounded=0;entryX=0;entryY=0.25;entryDx=0;entryDy=0;" parent="1" edge="1">
          <mxGeometry width="50" height="50" relative="1" as="geometry">
            <mxPoint x="600" y="849.6" as="sourcePoint" />
            <mxPoint x="800" y="849.6" as="targetPoint" />
          </mxGeometry>
        </mxCell>
        <mxCell id="NBaIwqH9u7KzB3NyAWgl-54" value="" style="endArrow=classic;html=1;rounded=0;" parent="1" edge="1">
          <mxGeometry width="50" height="50" relative="1" as="geometry">
            <mxPoint x="600" y="870" as="sourcePoint" />
            <mxPoint x="680" y="870" as="targetPoint" />
          </mxGeometry>
        </mxCell>
        <mxCell id="NBaIwqH9u7KzB3NyAWgl-55" value="opcode" style="text;html=1;align=center;verticalAlign=middle;whiteSpace=wrap;rounded=0;" parent="1" vertex="1">
          <mxGeometry x="604" y="753" width="46" height="10" as="geometry" />
        </mxCell>
        <mxCell id="NBaIwqH9u7KzB3NyAWgl-56" value="funct" style="text;html=1;align=center;verticalAlign=middle;whiteSpace=wrap;rounded=0;" parent="1" vertex="1">
          <mxGeometry x="604" y="774" width="36" height="10" as="geometry" />
        </mxCell>
        <mxCell id="NBaIwqH9u7KzB3NyAWgl-57" value="rd" style="text;html=1;align=center;verticalAlign=middle;whiteSpace=wrap;rounded=0;" parent="1" vertex="1">
          <mxGeometry x="605" y="794" width="60" height="10" as="geometry" />
        </mxCell>
        <mxCell id="NBaIwqH9u7KzB3NyAWgl-58" value="rs1" style="text;html=1;align=center;verticalAlign=middle;whiteSpace=wrap;rounded=0;" parent="1" vertex="1">
          <mxGeometry x="605" y="814" width="60" height="10" as="geometry" />
        </mxCell>
        <mxCell id="NBaIwqH9u7KzB3NyAWgl-59" value="rs2" style="text;html=1;align=center;verticalAlign=middle;whiteSpace=wrap;rounded=0;" parent="1" vertex="1">
          <mxGeometry x="605" y="833" width="60" height="10" as="geometry" />
        </mxCell>
        <mxCell id="NBaIwqH9u7KzB3NyAWgl-60" value="imm[31:0]" style="text;html=1;align=center;verticalAlign=middle;whiteSpace=wrap;rounded=0;" parent="1" vertex="1">
          <mxGeometry x="604" y="855" width="60" height="10" as="geometry" />
        </mxCell>
        <mxCell id="NBaIwqH9u7KzB3NyAWgl-61" value="&lt;div&gt;reg_file&lt;/div&gt;x1~x32" style="rounded=1;whiteSpace=wrap;html=1;fillColor=#dae8fc;strokeColor=#6c8ebf;" parent="1" vertex="1">
          <mxGeometry x="800" y="720" width="80" height="200" as="geometry" />
        </mxCell>
        <mxCell id="NBaIwqH9u7KzB3NyAWgl-62" value="" style="endArrow=classic;html=1;rounded=0;entryX=0;entryY=0.5;entryDx=0;entryDy=0;" parent="1" target="NBaIwqH9u7KzB3NyAWgl-74" edge="1">
          <mxGeometry width="50" height="50" relative="1" as="geometry">
            <mxPoint x="970" y="730" as="sourcePoint" />
            <mxPoint x="1004" y="753" as="targetPoint" />
          </mxGeometry>
        </mxCell>
        <mxCell id="NBaIwqH9u7KzB3NyAWgl-63" value="" style="endArrow=classic;html=1;rounded=0;entryX=0;entryY=0.25;entryDx=0;entryDy=0;" parent="1" edge="1">
          <mxGeometry width="50" height="50" relative="1" as="geometry">
            <mxPoint x="720" y="788.6" as="sourcePoint" />
            <mxPoint x="800" y="788.6" as="targetPoint" />
          </mxGeometry>
        </mxCell>
        <mxCell id="NBaIwqH9u7KzB3NyAWgl-64" value="reg_or_pc" style="text;html=1;align=center;verticalAlign=middle;whiteSpace=wrap;rounded=0;" parent="1" vertex="1">
          <mxGeometry x="970" y="742" width="60" height="10" as="geometry" />
        </mxCell>
        <mxCell id="NBaIwqH9u7KzB3NyAWgl-65" value="reg_wen" style="text;html=1;align=center;verticalAlign=middle;whiteSpace=wrap;rounded=0;" parent="1" vertex="1">
          <mxGeometry x="724" y="774" width="60" height="10" as="geometry" />
        </mxCell>
        <mxCell id="NBaIwqH9u7KzB3NyAWgl-66" value="" style="endArrow=classic;html=1;rounded=0;entryX=0;entryY=0.25;entryDx=0;entryDy=0;" parent="1" edge="1">
          <mxGeometry width="50" height="50" relative="1" as="geometry">
            <mxPoint x="720" y="750" as="sourcePoint" />
            <mxPoint x="800" y="750" as="targetPoint" />
          </mxGeometry>
        </mxCell>
        <mxCell id="NBaIwqH9u7KzB3NyAWgl-67" value="" style="endArrow=classic;html=1;rounded=0;entryX=0;entryY=0.5;entryDx=0;entryDy=0;" parent="1" target="NBaIwqH9u7KzB3NyAWgl-75" edge="1">
          <mxGeometry width="50" height="50" relative="1" as="geometry">
            <mxPoint x="970" y="820" as="sourcePoint" />
            <mxPoint x="1080" y="689.6" as="targetPoint" />
          </mxGeometry>
        </mxCell>
        <mxCell id="NBaIwqH9u7KzB3NyAWgl-68" value="reg_din" style="text;html=1;align=center;verticalAlign=middle;whiteSpace=wrap;rounded=0;" parent="1" vertex="1">
          <mxGeometry x="724" y="733" width="60" height="10" as="geometry" />
        </mxCell>
        <mxCell id="NBaIwqH9u7KzB3NyAWgl-69" value="reg_or_imm" style="text;html=1;align=center;verticalAlign=middle;whiteSpace=wrap;rounded=0;" parent="1" vertex="1">
          <mxGeometry x="975" y="805" width="60" height="10" as="geometry" />
        </mxCell>
        <mxCell id="NBaIwqH9u7KzB3NyAWgl-70" value="" style="endArrow=classic;html=1;rounded=0;entryX=0;entryY=0.25;entryDx=0;entryDy=0;" parent="1" edge="1">
          <mxGeometry width="50" height="50" relative="1" as="geometry">
            <mxPoint x="880" y="840" as="sourcePoint" />
            <mxPoint x="960" y="840" as="targetPoint" />
          </mxGeometry>
        </mxCell>
        <mxCell id="NBaIwqH9u7KzB3NyAWgl-72" value="" style="endArrow=classic;html=1;rounded=0;entryX=0;entryY=0.25;entryDx=0;entryDy=0;" parent="1" edge="1">
          <mxGeometry width="50" height="50" relative="1" as="geometry">
            <mxPoint x="880" y="780" as="sourcePoint" />
            <mxPoint x="960" y="780" as="targetPoint" />
          </mxGeometry>
        </mxCell>
        <mxCell id="NBaIwqH9u7KzB3NyAWgl-73" value="a" style="text;html=1;align=center;verticalAlign=middle;whiteSpace=wrap;rounded=0;" parent="1" vertex="1">
          <mxGeometry x="1090" y="774" width="16" height="10" as="geometry" />
        </mxCell>
        <mxCell id="NBaIwqH9u7KzB3NyAWgl-74" value="mux" style="shape=trapezoid;perimeter=trapezoidPerimeter;whiteSpace=wrap;html=1;fixedSize=1;size=10;rotation=90;fillColor=#e1d5e7;strokeColor=#9673a6;align=center;" parent="1" vertex="1">
          <mxGeometry x="950" y="779" width="40" height="20" as="geometry" />
        </mxCell>
        <mxCell id="NBaIwqH9u7KzB3NyAWgl-75" value="mux" style="shape=trapezoid;perimeter=trapezoidPerimeter;whiteSpace=wrap;html=1;fixedSize=1;size=10;rotation=90;fillColor=#e1d5e7;strokeColor=#9673a6;align=center;" parent="1" vertex="1">
          <mxGeometry x="950" y="840" width="40" height="20" as="geometry" />
        </mxCell>
        <mxCell id="NBaIwqH9u7KzB3NyAWgl-77" value="" style="endArrow=none;html=1;rounded=0;" parent="1" edge="1">
          <mxGeometry width="50" height="50" relative="1" as="geometry">
            <mxPoint x="400" y="870" as="sourcePoint" />
            <mxPoint x="400" y="950" as="targetPoint" />
          </mxGeometry>
        </mxCell>
        <mxCell id="NBaIwqH9u7KzB3NyAWgl-79" value="" style="endArrow=none;html=1;rounded=0;" parent="1" edge="1">
          <mxGeometry width="50" height="50" relative="1" as="geometry">
            <mxPoint x="400" y="950" as="sourcePoint" />
            <mxPoint x="900" y="950" as="targetPoint" />
          </mxGeometry>
        </mxCell>
        <mxCell id="NBaIwqH9u7KzB3NyAWgl-81" value="" style="endArrow=classic;html=1;rounded=0;entryX=0.75;entryY=1;entryDx=0;entryDy=0;" parent="1" target="NBaIwqH9u7KzB3NyAWgl-74" edge="1">
          <mxGeometry width="50" height="50" relative="1" as="geometry">
            <mxPoint x="900" y="799" as="sourcePoint" />
            <mxPoint x="1040" y="764" as="targetPoint" />
          </mxGeometry>
        </mxCell>
        <mxCell id="NBaIwqH9u7KzB3NyAWgl-82" value="" style="endArrow=none;html=1;rounded=0;" parent="1" edge="1">
          <mxGeometry width="50" height="50" relative="1" as="geometry">
            <mxPoint x="970" y="820" as="sourcePoint" />
            <mxPoint x="1040" y="820" as="targetPoint" />
          </mxGeometry>
        </mxCell>
        <mxCell id="NBaIwqH9u7KzB3NyAWgl-83" value="" style="endArrow=none;html=1;rounded=0;" parent="1" source="NBaIwqH9u7KzB3NyAWgl-116" edge="1">
          <mxGeometry width="50" height="50" relative="1" as="geometry">
            <mxPoint x="1035" y="764" as="sourcePoint" />
            <mxPoint x="1040" y="720" as="targetPoint" />
          </mxGeometry>
        </mxCell>
        <mxCell id="NBaIwqH9u7KzB3NyAWgl-84" value="" style="endArrow=none;html=1;rounded=0;" parent="1" edge="1">
          <mxGeometry width="50" height="50" relative="1" as="geometry">
            <mxPoint x="680" y="930" as="sourcePoint" />
            <mxPoint x="680" y="870" as="targetPoint" />
          </mxGeometry>
        </mxCell>
        <mxCell id="NBaIwqH9u7KzB3NyAWgl-85" value="" style="endArrow=none;html=1;rounded=0;" parent="1" edge="1">
          <mxGeometry width="50" height="50" relative="1" as="geometry">
            <mxPoint x="680" y="930" as="sourcePoint" />
            <mxPoint x="920" y="930" as="targetPoint" />
          </mxGeometry>
        </mxCell>
        <mxCell id="NBaIwqH9u7KzB3NyAWgl-87" value="" style="endArrow=classic;html=1;rounded=0;entryX=0.75;entryY=1;entryDx=0;entryDy=0;" parent="1" target="NBaIwqH9u7KzB3NyAWgl-75" edge="1">
          <mxGeometry width="50" height="50" relative="1" as="geometry">
            <mxPoint x="920" y="860" as="sourcePoint" />
            <mxPoint x="980" y="870" as="targetPoint" />
          </mxGeometry>
        </mxCell>
        <mxCell id="NBaIwqH9u7KzB3NyAWgl-93" value="" style="verticalLabelPosition=bottom;verticalAlign=top;html=1;shape=mxgraph.basic.arc;startAngle=0.0032476092441872753;endAngle=0.5018946122032574;" parent="1" vertex="1">
          <mxGeometry x="910" y="910" width="20" height="20" as="geometry" />
        </mxCell>
        <mxCell id="NBaIwqH9u7KzB3NyAWgl-96" value="" style="endArrow=none;html=1;rounded=0;" parent="1" source="NBaIwqH9u7KzB3NyAWgl-93" edge="1">
          <mxGeometry width="50" height="50" relative="1" as="geometry">
            <mxPoint x="919.9" y="885" as="sourcePoint" />
            <mxPoint x="919.9" y="875" as="targetPoint" />
            <Array as="points">
              <mxPoint x="919.9" y="875" />
              <mxPoint x="920" y="860" />
            </Array>
          </mxGeometry>
        </mxCell>
        <mxCell id="NBaIwqH9u7KzB3NyAWgl-97" value="" style="verticalLabelPosition=bottom;verticalAlign=top;html=1;shape=mxgraph.basic.arc;startAngle=0.0032476092441872753;endAngle=0.5018946122032574;" parent="1" vertex="1">
          <mxGeometry x="890" y="910" width="20" height="40" as="geometry" />
        </mxCell>
        <mxCell id="NBaIwqH9u7KzB3NyAWgl-98" value="" style="endArrow=none;html=1;rounded=0;" parent="1" target="NBaIwqH9u7KzB3NyAWgl-97" edge="1">
          <mxGeometry width="50" height="50" relative="1" as="geometry">
            <mxPoint x="900" y="950" as="sourcePoint" />
            <mxPoint x="940" y="890" as="targetPoint" />
          </mxGeometry>
        </mxCell>
        <mxCell id="B6isz3c-7Hk3uSjzke4N-49" value="" style="edgeStyle=orthogonalEdgeStyle;rounded=0;orthogonalLoop=1;jettySize=auto;html=1;entryX=0.25;entryY=1;entryDx=0;entryDy=0;" edge="1" parent="1" source="NBaIwqH9u7KzB3NyAWgl-100" target="NBaIwqH9u7KzB3NyAWgl-108">
          <mxGeometry relative="1" as="geometry" />
        </mxCell>
        <mxCell id="NBaIwqH9u7KzB3NyAWgl-100" value="&lt;div align=&quot;center&quot;&gt;&lt;div&gt;&lt;b&gt;+&lt;/b&gt;&lt;/div&gt;&lt;/div&gt;" style="shape=trapezoid;perimeter=trapezoidPerimeter;whiteSpace=wrap;html=1;fixedSize=1;size=10;rotation=90;fillColor=#e1d5e7;strokeColor=#9673a6;align=center;" parent="1" vertex="1">
          <mxGeometry x="369" y="530" width="40" height="20" as="geometry" />
        </mxCell>
        <mxCell id="NBaIwqH9u7KzB3NyAWgl-102" value="" style="endArrow=none;html=1;rounded=0;" parent="1" edge="1">
          <mxGeometry width="50" height="50" relative="1" as="geometry">
            <mxPoint x="340" y="770" as="sourcePoint" />
            <mxPoint x="340" y="550" as="targetPoint" />
          </mxGeometry>
        </mxCell>
        <mxCell id="NBaIwqH9u7KzB3NyAWgl-103" value="" style="endArrow=classic;html=1;rounded=0;entryX=0.75;entryY=1;entryDx=0;entryDy=0;" parent="1" target="NBaIwqH9u7KzB3NyAWgl-100" edge="1">
          <mxGeometry width="50" height="50" relative="1" as="geometry">
            <mxPoint x="339" y="550" as="sourcePoint" />
            <mxPoint x="409" y="550" as="targetPoint" />
          </mxGeometry>
        </mxCell>
        <mxCell id="NBaIwqH9u7KzB3NyAWgl-106" value="" style="endArrow=classic;html=1;rounded=0;entryX=0.25;entryY=1;entryDx=0;entryDy=0;" parent="1" target="NBaIwqH9u7KzB3NyAWgl-100" edge="1">
          <mxGeometry width="50" height="50" relative="1" as="geometry">
            <mxPoint x="319" y="530" as="sourcePoint" />
            <mxPoint x="359" y="531" as="targetPoint" />
            <Array as="points" />
          </mxGeometry>
        </mxCell>
        <mxCell id="NBaIwqH9u7KzB3NyAWgl-107" value="4" style="text;html=1;align=center;verticalAlign=middle;whiteSpace=wrap;rounded=0;" parent="1" vertex="1">
          <mxGeometry x="321" y="520" width="30" height="10" as="geometry" />
        </mxCell>
        <mxCell id="NBaIwqH9u7KzB3NyAWgl-108" value="mux" style="shape=trapezoid;perimeter=trapezoidPerimeter;whiteSpace=wrap;html=1;fixedSize=1;size=10;rotation=90;fillColor=#e1d5e7;strokeColor=#9673a6;align=center;" parent="1" vertex="1">
          <mxGeometry x="430" y="550" width="80" height="20" as="geometry" />
        </mxCell>
        <mxCell id="NBaIwqH9u7KzB3NyAWgl-109" value="ALU" style="rounded=1;whiteSpace=wrap;html=1;fillColor=#dae8fc;strokeColor=#6c8ebf;" parent="1" vertex="1">
          <mxGeometry x="1120" y="720" width="80" height="200" as="geometry" />
        </mxCell>
        <mxCell id="NBaIwqH9u7KzB3NyAWgl-110" value="" style="endArrow=classic;html=1;rounded=0;exitX=0.5;exitY=0;exitDx=0;exitDy=0;" parent="1" source="NBaIwqH9u7KzB3NyAWgl-74" edge="1">
          <mxGeometry width="50" height="50" relative="1" as="geometry">
            <mxPoint x="1030" y="830" as="sourcePoint" />
            <mxPoint x="1120" y="789" as="targetPoint" />
          </mxGeometry>
        </mxCell>
        <mxCell id="NBaIwqH9u7KzB3NyAWgl-112" value="reg[rs1]" style="text;html=1;align=center;verticalAlign=middle;whiteSpace=wrap;rounded=0;" parent="1" vertex="1">
          <mxGeometry x="883" y="764" width="60" height="10" as="geometry" />
        </mxCell>
        <mxCell id="NBaIwqH9u7KzB3NyAWgl-113" value="" style="endArrow=classic;html=1;rounded=0;exitX=0.5;exitY=0;exitDx=0;exitDy=0;" parent="1" edge="1">
          <mxGeometry width="50" height="50" relative="1" as="geometry">
            <mxPoint x="980" y="850" as="sourcePoint" />
            <mxPoint x="1120" y="850" as="targetPoint" />
          </mxGeometry>
        </mxCell>
        <mxCell id="NBaIwqH9u7KzB3NyAWgl-114" value="reg[rs2]" style="text;html=1;align=center;verticalAlign=middle;whiteSpace=wrap;rounded=0;" parent="1" vertex="1">
          <mxGeometry x="905" y="823" width="60" height="10" as="geometry" />
        </mxCell>
        <mxCell id="NBaIwqH9u7KzB3NyAWgl-115" value="b" style="text;html=1;align=center;verticalAlign=middle;whiteSpace=wrap;rounded=0;" parent="1" vertex="1">
          <mxGeometry x="1090" y="836" width="16" height="10" as="geometry" />
        </mxCell>
        <mxCell id="NBaIwqH9u7KzB3NyAWgl-116" value="" style="verticalLabelPosition=bottom;verticalAlign=top;html=1;shape=mxgraph.basic.arc;startAngle=0.0032476092441872753;endAngle=0.5018946122032574;" parent="1" vertex="1">
          <mxGeometry x="1030" y="779" width="20" height="20" as="geometry" />
        </mxCell>
        <mxCell id="NBaIwqH9u7KzB3NyAWgl-118" value="" style="endArrow=none;html=1;rounded=0;" parent="1" target="NBaIwqH9u7KzB3NyAWgl-116" edge="1">
          <mxGeometry width="50" height="50" relative="1" as="geometry">
            <mxPoint x="1040" y="820" as="sourcePoint" />
            <mxPoint x="1060" y="769.5" as="targetPoint" />
          </mxGeometry>
        </mxCell>
        <mxCell id="NBaIwqH9u7KzB3NyAWgl-119" value="" style="endArrow=classic;html=1;rounded=0;entryX=0;entryY=0.25;entryDx=0;entryDy=0;" parent="1" edge="1">
          <mxGeometry width="50" height="50" relative="1" as="geometry">
            <mxPoint x="1070" y="760" as="sourcePoint" />
            <mxPoint x="1120" y="760" as="targetPoint" />
          </mxGeometry>
        </mxCell>
        <mxCell id="NBaIwqH9u7KzB3NyAWgl-120" value="func" style="text;html=1;align=center;verticalAlign=middle;whiteSpace=wrap;rounded=0;" parent="1" vertex="1">
          <mxGeometry x="1064" y="746" width="60" height="10" as="geometry" />
        </mxCell>
        <mxCell id="NBaIwqH9u7KzB3NyAWgl-121" value="" style="triangle;whiteSpace=wrap;html=1;rotation=90;fillColor=#f8cecc;strokeColor=#b85450;strokeWidth=0;" parent="1" vertex="1">
          <mxGeometry x="820" y="720" width="10" height="10" as="geometry" />
        </mxCell>
        <mxCell id="NBaIwqH9u7KzB3NyAWgl-122" value="" style="endArrow=classic;html=1;rounded=0;entryX=0;entryY=0.5;entryDx=0;entryDy=0;" parent="1" target="NBaIwqH9u7KzB3NyAWgl-121" edge="1">
          <mxGeometry width="50" height="50" relative="1" as="geometry">
            <mxPoint x="825" y="700" as="sourcePoint" />
            <mxPoint x="830" y="670" as="targetPoint" />
          </mxGeometry>
        </mxCell>
        <mxCell id="NBaIwqH9u7KzB3NyAWgl-123" value="clk" style="text;html=1;align=center;verticalAlign=middle;whiteSpace=wrap;rounded=0;" parent="1" vertex="1">
          <mxGeometry x="800" y="700" width="30" height="10" as="geometry" />
        </mxCell>
        <mxCell id="NBaIwqH9u7KzB3NyAWgl-124" value="" style="endArrow=classic;html=1;rounded=0;entryX=0;entryY=0.5;entryDx=0;entryDy=0;" parent="1" edge="1">
          <mxGeometry width="50" height="50" relative="1" as="geometry">
            <mxPoint x="855" y="700" as="sourcePoint" />
            <mxPoint x="855" y="720" as="targetPoint" />
          </mxGeometry>
        </mxCell>
        <mxCell id="NBaIwqH9u7KzB3NyAWgl-125" value="rstn" style="text;html=1;align=center;verticalAlign=middle;whiteSpace=wrap;rounded=0;" parent="1" vertex="1">
          <mxGeometry x="855" y="700" width="30" height="10" as="geometry" />
        </mxCell>
        <mxCell id="NBaIwqH9u7KzB3NyAWgl-126" value="" style="endArrow=classic;html=1;rounded=0;" parent="1" edge="1">
          <mxGeometry width="50" height="50" relative="1" as="geometry">
            <mxPoint x="1200" y="801" as="sourcePoint" />
            <mxPoint x="1260" y="801" as="targetPoint" />
          </mxGeometry>
        </mxCell>
        <mxCell id="NBaIwqH9u7KzB3NyAWgl-127" value="" style="endArrow=classic;html=1;rounded=0;" parent="1" edge="1">
          <mxGeometry width="50" height="50" relative="1" as="geometry">
            <mxPoint x="1200" y="820" as="sourcePoint" />
            <mxPoint x="1260" y="820" as="targetPoint" />
          </mxGeometry>
        </mxCell>
        <mxCell id="NBaIwqH9u7KzB3NyAWgl-128" value="" style="endArrow=classic;html=1;rounded=0;" parent="1" edge="1">
          <mxGeometry width="50" height="50" relative="1" as="geometry">
            <mxPoint x="1200" y="841" as="sourcePoint" />
            <mxPoint x="1260" y="841" as="targetPoint" />
          </mxGeometry>
        </mxCell>
        <mxCell id="NBaIwqH9u7KzB3NyAWgl-129" value="" style="endArrow=classic;html=1;rounded=0;entryX=0.25;entryY=1;entryDx=0;entryDy=0;" parent="1" target="NBaIwqH9u7KzB3NyAWgl-137" edge="1">
          <mxGeometry width="50" height="50" relative="1" as="geometry">
            <mxPoint x="1200" y="860" as="sourcePoint" />
            <mxPoint x="1510" y="860" as="targetPoint" />
          </mxGeometry>
        </mxCell>
        <mxCell id="NBaIwqH9u7KzB3NyAWgl-130" value="sign" style="text;html=1;align=center;verticalAlign=middle;whiteSpace=wrap;rounded=0;" parent="1" vertex="1">
          <mxGeometry x="1204" y="784" width="60" height="10" as="geometry" />
        </mxCell>
        <mxCell id="NBaIwqH9u7KzB3NyAWgl-131" value="cmp" style="text;html=1;align=center;verticalAlign=middle;whiteSpace=wrap;rounded=0;" parent="1" vertex="1">
          <mxGeometry x="1204" y="805" width="60" height="10" as="geometry" />
        </mxCell>
        <mxCell id="NBaIwqH9u7KzB3NyAWgl-132" value="zero" style="text;html=1;align=center;verticalAlign=middle;whiteSpace=wrap;rounded=0;" parent="1" vertex="1">
          <mxGeometry x="1205" y="825" width="60" height="10" as="geometry" />
        </mxCell>
        <mxCell id="NBaIwqH9u7KzB3NyAWgl-133" value="result" style="text;html=1;align=center;verticalAlign=middle;whiteSpace=wrap;rounded=0;" parent="1" vertex="1">
          <mxGeometry x="1205" y="845" width="60" height="10" as="geometry" />
        </mxCell>
        <mxCell id="NBaIwqH9u7KzB3NyAWgl-134" value="DRAM" style="rounded=1;whiteSpace=wrap;html=1;fillColor=#dae8fc;strokeColor=#6c8ebf;" parent="1" vertex="1">
          <mxGeometry x="1280" y="952" width="120" height="60" as="geometry" />
        </mxCell>
        <mxCell id="NBaIwqH9u7KzB3NyAWgl-135" value="" style="endArrow=classic;html=1;rounded=0;entryX=0;entryY=0.5;entryDx=0;entryDy=0;" parent="1" target="NBaIwqH9u7KzB3NyAWgl-137" edge="1">
          <mxGeometry width="50" height="50" relative="1" as="geometry">
            <mxPoint x="1530" y="799" as="sourcePoint" />
            <mxPoint x="1564" y="822" as="targetPoint" />
          </mxGeometry>
        </mxCell>
        <mxCell id="NBaIwqH9u7KzB3NyAWgl-136" value="ram_or_alu" style="text;html=1;align=center;verticalAlign=middle;whiteSpace=wrap;rounded=0;" parent="1" vertex="1">
          <mxGeometry x="1530" y="824" width="60" height="10" as="geometry" />
        </mxCell>
        <mxCell id="NBaIwqH9u7KzB3NyAWgl-137" value="mux" style="shape=trapezoid;perimeter=trapezoidPerimeter;whiteSpace=wrap;html=1;fixedSize=1;size=10;rotation=90;fillColor=#e1d5e7;strokeColor=#9673a6;align=center;" parent="1" vertex="1">
          <mxGeometry x="1510" y="860" width="40" height="20" as="geometry" />
        </mxCell>
        <mxCell id="NBaIwqH9u7KzB3NyAWgl-138" value="LOAD" style="rounded=1;whiteSpace=wrap;html=1;fillColor=#dae8fc;strokeColor=#6c8ebf;" parent="1" vertex="1">
          <mxGeometry x="1440" y="880" width="40" height="60" as="geometry" />
        </mxCell>
        <mxCell id="NBaIwqH9u7KzB3NyAWgl-140" value="" style="endArrow=classic;html=1;rounded=0;entryX=0.25;entryY=0;entryDx=0;entryDy=0;" parent="1" target="NBaIwqH9u7KzB3NyAWgl-134" edge="1">
          <mxGeometry width="50" height="50" relative="1" as="geometry">
            <mxPoint x="1310" y="860" as="sourcePoint" />
            <mxPoint x="1330" y="870" as="targetPoint" />
          </mxGeometry>
        </mxCell>
        <mxCell id="NBaIwqH9u7KzB3NyAWgl-141" value="addr" style="text;html=1;align=center;verticalAlign=middle;whiteSpace=wrap;rounded=0;" parent="1" vertex="1">
          <mxGeometry x="1300" y="920" width="60" height="10" as="geometry" />
        </mxCell>
        <mxCell id="NBaIwqH9u7KzB3NyAWgl-142" value="" style="edgeStyle=elbowEdgeStyle;elbow=horizontal;endArrow=classic;html=1;curved=0;rounded=0;endSize=8;startSize=8;exitX=1;exitY=0.5;exitDx=0;exitDy=0;entryX=0;entryY=0.75;entryDx=0;entryDy=0;" parent="1" source="NBaIwqH9u7KzB3NyAWgl-134" target="NBaIwqH9u7KzB3NyAWgl-138" edge="1">
          <mxGeometry width="50" height="50" relative="1" as="geometry">
            <mxPoint x="1430" y="1015" as="sourcePoint" />
            <mxPoint x="1480" y="965" as="targetPoint" />
          </mxGeometry>
        </mxCell>
        <mxCell id="NBaIwqH9u7KzB3NyAWgl-143" value="ram_dout" style="text;html=1;align=center;verticalAlign=middle;whiteSpace=wrap;rounded=0;" parent="1" vertex="1">
          <mxGeometry x="1420" y="967" width="60" height="10" as="geometry" />
        </mxCell>
        <mxCell id="NBaIwqH9u7KzB3NyAWgl-144" value="" style="edgeStyle=elbowEdgeStyle;elbow=horizontal;endArrow=classic;html=1;curved=0;rounded=0;endSize=8;startSize=8;entryX=0;entryY=0.5;entryDx=0;entryDy=0;" parent="1" target="NBaIwqH9u7KzB3NyAWgl-138" edge="1">
          <mxGeometry width="50" height="50" relative="1" as="geometry">
            <mxPoint x="1340" y="860" as="sourcePoint" />
            <mxPoint x="1390" y="860" as="targetPoint" />
            <Array as="points">
              <mxPoint x="1340" y="880" />
            </Array>
          </mxGeometry>
        </mxCell>
        <mxCell id="NBaIwqH9u7KzB3NyAWgl-146" value="" style="endArrow=classic;html=1;rounded=0;entryX=0;entryY=0.25;entryDx=0;entryDy=0;" parent="1" target="NBaIwqH9u7KzB3NyAWgl-138" edge="1">
          <mxGeometry width="50" height="50" relative="1" as="geometry">
            <mxPoint x="1380" y="895" as="sourcePoint" />
            <mxPoint x="1420" y="870" as="targetPoint" />
          </mxGeometry>
        </mxCell>
        <mxCell id="NBaIwqH9u7KzB3NyAWgl-147" value="load_sign" style="text;html=1;align=center;verticalAlign=middle;whiteSpace=wrap;rounded=0;" parent="1" vertex="1">
          <mxGeometry x="1380" y="880" width="60" height="10" as="geometry" />
        </mxCell>
        <mxCell id="NBaIwqH9u7KzB3NyAWgl-148" value="" style="edgeStyle=elbowEdgeStyle;elbow=horizontal;endArrow=classic;html=1;curved=0;rounded=0;endSize=8;startSize=8;exitX=1;exitY=0.5;exitDx=0;exitDy=0;entryX=0;entryY=0.75;entryDx=0;entryDy=0;" parent="1" source="NBaIwqH9u7KzB3NyAWgl-138" edge="1">
          <mxGeometry width="50" height="50" relative="1" as="geometry">
            <mxPoint x="1480" y="937" as="sourcePoint" />
            <mxPoint x="1520" y="880" as="targetPoint" />
          </mxGeometry>
        </mxCell>
        <mxCell id="NBaIwqH9u7KzB3NyAWgl-149" value="ram_load" style="text;html=1;align=center;verticalAlign=middle;whiteSpace=wrap;rounded=0;" parent="1" vertex="1">
          <mxGeometry x="1480" y="910" width="60" height="10" as="geometry" />
        </mxCell>
        <mxCell id="NBaIwqH9u7KzB3NyAWgl-150" value="mux" style="shape=trapezoid;perimeter=trapezoidPerimeter;whiteSpace=wrap;html=1;fixedSize=1;size=10;rotation=-90;fillColor=#e1d5e7;strokeColor=#9673a6;align=center;" parent="1" vertex="1">
          <mxGeometry x="730" y="650" width="40" height="20" as="geometry" />
        </mxCell>
        <mxCell id="NBaIwqH9u7KzB3NyAWgl-151" value="" style="endArrow=classic;html=1;rounded=0;exitX=0.5;exitY=0;exitDx=0;exitDy=0;" parent="1" source="NBaIwqH9u7KzB3NyAWgl-137" edge="1">
          <mxGeometry width="50" height="50" relative="1" as="geometry">
            <mxPoint x="1630" y="806" as="sourcePoint" />
            <mxPoint x="1620" y="870" as="targetPoint" />
          </mxGeometry>
        </mxCell>
        <mxCell id="NBaIwqH9u7KzB3NyAWgl-152" value="ex_result" style="text;html=1;align=center;verticalAlign=middle;whiteSpace=wrap;rounded=0;" parent="1" vertex="1">
          <mxGeometry x="1550" y="855" width="60" height="10" as="geometry" />
        </mxCell>
        <mxCell id="NBaIwqH9u7KzB3NyAWgl-153" value="" style="verticalLabelPosition=bottom;verticalAlign=top;html=1;shape=mxgraph.basic.arc;startAngle=0.0032476092441872753;endAngle=0.5018946122032574;" parent="1" vertex="1">
          <mxGeometry x="890" y="831" width="20" height="20" as="geometry" />
        </mxCell>
        <mxCell id="NBaIwqH9u7KzB3NyAWgl-155" value="" style="endArrow=none;html=1;rounded=0;" parent="1" source="NBaIwqH9u7KzB3NyAWgl-97" target="NBaIwqH9u7KzB3NyAWgl-153" edge="1">
          <mxGeometry width="50" height="50" relative="1" as="geometry">
            <mxPoint x="890" y="890" as="sourcePoint" />
            <mxPoint x="940" y="840" as="targetPoint" />
          </mxGeometry>
        </mxCell>
        <mxCell id="NBaIwqH9u7KzB3NyAWgl-156" value="" style="endArrow=none;html=1;rounded=0;" parent="1" source="NBaIwqH9u7KzB3NyAWgl-153" edge="1">
          <mxGeometry width="50" height="50" relative="1" as="geometry">
            <mxPoint x="900" y="820" as="sourcePoint" />
            <mxPoint x="899.85" y="798.5" as="targetPoint" />
          </mxGeometry>
        </mxCell>
        <mxCell id="NBaIwqH9u7KzB3NyAWgl-158" value="" style="edgeStyle=orthogonalEdgeStyle;rounded=0;orthogonalLoop=1;jettySize=auto;html=1;" parent="1" source="NBaIwqH9u7KzB3NyAWgl-157" target="NBaIwqH9u7KzB3NyAWgl-134" edge="1">
          <mxGeometry relative="1" as="geometry" />
        </mxCell>
        <mxCell id="NBaIwqH9u7KzB3NyAWgl-157" value="STORE" style="rounded=1;whiteSpace=wrap;html=1;fillColor=#dae8fc;strokeColor=#6c8ebf;" parent="1" vertex="1">
          <mxGeometry x="1180" y="952" width="40" height="60" as="geometry" />
        </mxCell>
        <mxCell id="NBaIwqH9u7KzB3NyAWgl-159" value="ram_din" style="text;html=1;align=center;verticalAlign=middle;whiteSpace=wrap;rounded=0;" parent="1" vertex="1">
          <mxGeometry x="1220" y="967" width="60" height="10" as="geometry" />
        </mxCell>
        <mxCell id="NBaIwqH9u7KzB3NyAWgl-160" value="" style="endArrow=none;html=1;rounded=0;" parent="1" edge="1">
          <mxGeometry width="50" height="50" relative="1" as="geometry">
            <mxPoint x="1240" y="940" as="sourcePoint" />
            <mxPoint x="1240" y="860" as="targetPoint" />
          </mxGeometry>
        </mxCell>
        <mxCell id="NBaIwqH9u7KzB3NyAWgl-161" value="" style="endArrow=none;html=1;rounded=0;" parent="1" edge="1">
          <mxGeometry width="50" height="50" relative="1" as="geometry">
            <mxPoint x="1140" y="940" as="sourcePoint" />
            <mxPoint x="1240" y="940" as="targetPoint" />
          </mxGeometry>
        </mxCell>
        <mxCell id="NBaIwqH9u7KzB3NyAWgl-162" value="" style="endArrow=none;html=1;rounded=0;" parent="1" edge="1">
          <mxGeometry width="50" height="50" relative="1" as="geometry">
            <mxPoint x="1140" y="970" as="sourcePoint" />
            <mxPoint x="1140" y="940" as="targetPoint" />
          </mxGeometry>
        </mxCell>
        <mxCell id="NBaIwqH9u7KzB3NyAWgl-163" value="" style="endArrow=classic;html=1;rounded=0;" parent="1" edge="1">
          <mxGeometry width="50" height="50" relative="1" as="geometry">
            <mxPoint x="1140" y="970" as="sourcePoint" />
            <mxPoint x="1180" y="970" as="targetPoint" />
          </mxGeometry>
        </mxCell>
        <mxCell id="NBaIwqH9u7KzB3NyAWgl-164" value="" style="endArrow=none;html=1;rounded=0;" parent="1" edge="1">
          <mxGeometry width="50" height="50" relative="1" as="geometry">
            <mxPoint x="890" y="920" as="sourcePoint" />
            <mxPoint x="890" y="840" as="targetPoint" />
          </mxGeometry>
        </mxCell>
        <mxCell id="NBaIwqH9u7KzB3NyAWgl-165" value="" style="endArrow=none;html=1;rounded=0;" parent="1" edge="1">
          <mxGeometry width="50" height="50" relative="1" as="geometry">
            <mxPoint x="890" y="920" as="sourcePoint" />
            <mxPoint x="1000" y="920" as="targetPoint" />
          </mxGeometry>
        </mxCell>
        <mxCell id="NBaIwqH9u7KzB3NyAWgl-166" value="" style="endArrow=none;html=1;rounded=0;" parent="1" edge="1">
          <mxGeometry width="50" height="50" relative="1" as="geometry">
            <mxPoint x="1000" y="1000" as="sourcePoint" />
            <mxPoint x="1000" y="920" as="targetPoint" />
          </mxGeometry>
        </mxCell>
        <mxCell id="NBaIwqH9u7KzB3NyAWgl-167" value="" style="endArrow=classic;html=1;rounded=0;" parent="1" edge="1">
          <mxGeometry width="50" height="50" relative="1" as="geometry">
            <mxPoint x="1000" y="1000" as="sourcePoint" />
            <mxPoint x="1180" y="1000" as="targetPoint" />
          </mxGeometry>
        </mxCell>
        <mxCell id="NBaIwqH9u7KzB3NyAWgl-168" value="ram_store" style="text;html=1;align=center;verticalAlign=middle;whiteSpace=wrap;rounded=0;" parent="1" vertex="1">
          <mxGeometry x="1070" y="985" width="60" height="10" as="geometry" />
        </mxCell>
        <mxCell id="B6isz3c-7Hk3uSjzke4N-1" value="" style="triangle;whiteSpace=wrap;html=1;rotation=-90;fillColor=#f8cecc;strokeColor=#b85450;strokeWidth=0;" vertex="1" parent="1">
          <mxGeometry x="1300" y="1002" width="10" height="10" as="geometry" />
        </mxCell>
        <mxCell id="B6isz3c-7Hk3uSjzke4N-2" value="" style="endArrow=classic;html=1;rounded=0;entryX=0;entryY=0.5;entryDx=0;entryDy=0;" edge="1" parent="1" target="B6isz3c-7Hk3uSjzke4N-1">
          <mxGeometry width="50" height="50" relative="1" as="geometry">
            <mxPoint x="1305" y="1040" as="sourcePoint" />
            <mxPoint x="1300" y="990" as="targetPoint" />
          </mxGeometry>
        </mxCell>
        <mxCell id="B6isz3c-7Hk3uSjzke4N-3" value="clk" style="text;html=1;align=center;verticalAlign=middle;whiteSpace=wrap;rounded=0;" vertex="1" parent="1">
          <mxGeometry x="1280" y="1030" width="30" height="10" as="geometry" />
        </mxCell>
        <mxCell id="B6isz3c-7Hk3uSjzke4N-4" value="" style="endArrow=classic;html=1;rounded=0;entryX=0;entryY=0.5;entryDx=0;entryDy=0;" edge="1" parent="1">
          <mxGeometry width="50" height="50" relative="1" as="geometry">
            <mxPoint x="1360" y="1040" as="sourcePoint" />
            <mxPoint x="1360" y="1012" as="targetPoint" />
          </mxGeometry>
        </mxCell>
        <mxCell id="B6isz3c-7Hk3uSjzke4N-5" value="ram_wen" style="text;html=1;align=center;verticalAlign=middle;whiteSpace=wrap;rounded=0;" vertex="1" parent="1">
          <mxGeometry x="1360" y="1030" width="60" height="10" as="geometry" />
        </mxCell>
        <mxCell id="B6isz3c-7Hk3uSjzke4N-6" value="" style="endArrow=none;html=1;rounded=0;" edge="1" parent="1">
          <mxGeometry width="50" height="50" relative="1" as="geometry">
            <mxPoint x="1620" y="870" as="sourcePoint" />
            <mxPoint x="1620" y="650" as="targetPoint" />
          </mxGeometry>
        </mxCell>
        <mxCell id="B6isz3c-7Hk3uSjzke4N-7" value="" style="endArrow=classic;html=1;rounded=0;entryX=0.75;entryY=1;entryDx=0;entryDy=0;" edge="1" parent="1" target="NBaIwqH9u7KzB3NyAWgl-150">
          <mxGeometry width="50" height="50" relative="1" as="geometry">
            <mxPoint x="1620" y="650" as="sourcePoint" />
            <mxPoint x="910" y="590" as="targetPoint" />
          </mxGeometry>
        </mxCell>
        <mxCell id="B6isz3c-7Hk3uSjzke4N-8" value="" style="endArrow=none;html=1;rounded=0;" edge="1" parent="1">
          <mxGeometry width="50" height="50" relative="1" as="geometry">
            <mxPoint x="339.2" y="690" as="sourcePoint" />
            <mxPoint x="800" y="690" as="targetPoint" />
          </mxGeometry>
        </mxCell>
        <mxCell id="B6isz3c-7Hk3uSjzke4N-9" value="" style="edgeStyle=elbowEdgeStyle;elbow=vertical;endArrow=classic;html=1;curved=0;rounded=0;endSize=8;startSize=8;entryX=0.25;entryY=1;entryDx=0;entryDy=0;" edge="1" parent="1">
          <mxGeometry width="50" height="50" relative="1" as="geometry">
            <mxPoint x="800" y="690" as="sourcePoint" />
            <mxPoint x="760" y="670" as="targetPoint" />
            <Array as="points">
              <mxPoint x="780" y="670" />
            </Array>
          </mxGeometry>
        </mxCell>
        <mxCell id="B6isz3c-7Hk3uSjzke4N-10" value="" style="verticalLabelPosition=bottom;verticalAlign=top;html=1;shape=mxgraph.basic.arc;startAngle=0.0032476092441872753;endAngle=0.5018946122032574;" vertex="1" parent="1">
          <mxGeometry x="710" y="680" width="20" height="20" as="geometry" />
        </mxCell>
        <mxCell id="B6isz3c-7Hk3uSjzke4N-13" value="" style="endArrow=none;html=1;rounded=0;entryX=0.5;entryY=0;entryDx=0;entryDy=0;" edge="1" parent="1" target="NBaIwqH9u7KzB3NyAWgl-150">
          <mxGeometry width="50" height="50" relative="1" as="geometry">
            <mxPoint x="720" y="660" as="sourcePoint" />
            <mxPoint x="650" y="610" as="targetPoint" />
          </mxGeometry>
        </mxCell>
        <mxCell id="B6isz3c-7Hk3uSjzke4N-14" value="" style="endArrow=none;html=1;rounded=0;" edge="1" parent="1" source="B6isz3c-7Hk3uSjzke4N-10">
          <mxGeometry width="50" height="50" relative="1" as="geometry">
            <mxPoint x="650" y="659.9" as="sourcePoint" />
            <mxPoint x="720" y="660" as="targetPoint" />
          </mxGeometry>
        </mxCell>
        <mxCell id="B6isz3c-7Hk3uSjzke4N-15" value="" style="endArrow=classic;html=1;rounded=0;entryX=1;entryY=0.5;entryDx=0;entryDy=0;" edge="1" parent="1" target="NBaIwqH9u7KzB3NyAWgl-150">
          <mxGeometry width="50" height="50" relative="1" as="geometry">
            <mxPoint x="750" y="610" as="sourcePoint" />
            <mxPoint x="685" y="638" as="targetPoint" />
          </mxGeometry>
        </mxCell>
        <mxCell id="B6isz3c-7Hk3uSjzke4N-16" value="jump" style="text;html=1;align=center;verticalAlign=middle;whiteSpace=wrap;rounded=0;" vertex="1" parent="1">
          <mxGeometry x="754" y="620" width="30" height="10" as="geometry" />
        </mxCell>
        <mxCell id="B6isz3c-7Hk3uSjzke4N-19" value="" style="endArrow=none;html=1;rounded=0;entryX=0.501;entryY=0.997;entryDx=0;entryDy=0;entryPerimeter=0;" edge="1" parent="1" target="B6isz3c-7Hk3uSjzke4N-10">
          <mxGeometry width="50" height="50" relative="1" as="geometry">
            <mxPoint x="720" y="750" as="sourcePoint" />
            <mxPoint x="680" y="700" as="targetPoint" />
          </mxGeometry>
        </mxCell>
        <mxCell id="B6isz3c-7Hk3uSjzke4N-20" value="" style="endArrow=none;html=1;rounded=0;" edge="1" parent="1">
          <mxGeometry width="50" height="50" relative="1" as="geometry">
            <mxPoint x="720" y="750" as="sourcePoint" />
            <mxPoint x="720" y="750" as="targetPoint" />
          </mxGeometry>
        </mxCell>
        <mxCell id="B6isz3c-7Hk3uSjzke4N-21" value="Control" style="rounded=1;whiteSpace=wrap;html=1;fillColor=#dae8fc;strokeColor=#6c8ebf;" vertex="1" parent="1">
          <mxGeometry x="600" y="440" width="480" height="40" as="geometry" />
        </mxCell>
        <mxCell id="B6isz3c-7Hk3uSjzke4N-22" value="" style="endArrow=none;html=1;rounded=0;" edge="1" parent="1" target="B6isz3c-7Hk3uSjzke4N-23">
          <mxGeometry width="50" height="50" relative="1" as="geometry">
            <mxPoint x="660" y="770" as="sourcePoint" />
            <mxPoint x="660" y="720" as="targetPoint" />
          </mxGeometry>
        </mxCell>
        <mxCell id="B6isz3c-7Hk3uSjzke4N-23" value="" style="verticalLabelPosition=bottom;verticalAlign=top;html=1;shape=mxgraph.basic.arc;startAngle=0.0032476092441872753;endAngle=0.5018946122032574;" vertex="1" parent="1">
          <mxGeometry x="650" y="680" width="20" height="20" as="geometry" />
        </mxCell>
        <mxCell id="B6isz3c-7Hk3uSjzke4N-24" value="" style="endArrow=classic;html=1;rounded=0;" edge="1" parent="1" source="B6isz3c-7Hk3uSjzke4N-23">
          <mxGeometry width="50" height="50" relative="1" as="geometry">
            <mxPoint x="630" y="630" as="sourcePoint" />
            <mxPoint x="660" y="480" as="targetPoint" />
          </mxGeometry>
        </mxCell>
        <mxCell id="B6isz3c-7Hk3uSjzke4N-25" value="" style="verticalLabelPosition=bottom;verticalAlign=top;html=1;shape=mxgraph.basic.arc;startAngle=0.0032476092441872753;endAngle=0.5018946122032574;" vertex="1" parent="1">
          <mxGeometry x="670" y="680" width="20" height="20" as="geometry" />
        </mxCell>
        <mxCell id="B6isz3c-7Hk3uSjzke4N-26" value="" style="endArrow=none;html=1;rounded=0;" edge="1" parent="1" target="B6isz3c-7Hk3uSjzke4N-25">
          <mxGeometry width="50" height="50" relative="1" as="geometry">
            <mxPoint x="680" y="790" as="sourcePoint" />
            <mxPoint x="670" y="710" as="targetPoint" />
          </mxGeometry>
        </mxCell>
        <mxCell id="B6isz3c-7Hk3uSjzke4N-27" value="" style="endArrow=classic;html=1;rounded=0;" edge="1" parent="1">
          <mxGeometry width="50" height="50" relative="1" as="geometry">
            <mxPoint x="679.8" y="680" as="sourcePoint" />
            <mxPoint x="679.8" y="480" as="targetPoint" />
          </mxGeometry>
        </mxCell>
        <mxCell id="B6isz3c-7Hk3uSjzke4N-28" value="" style="endArrow=none;html=1;rounded=0;exitX=0.5;exitY=0;exitDx=0;exitDy=0;" edge="1" parent="1" source="NBaIwqH9u7KzB3NyAWgl-108">
          <mxGeometry width="50" height="50" relative="1" as="geometry">
            <mxPoint x="554" y="580" as="sourcePoint" />
            <mxPoint x="520" y="560" as="targetPoint" />
          </mxGeometry>
        </mxCell>
        <mxCell id="B6isz3c-7Hk3uSjzke4N-29" value="" style="endArrow=none;html=1;rounded=0;" edge="1" parent="1">
          <mxGeometry width="50" height="50" relative="1" as="geometry">
            <mxPoint x="520" y="560" as="sourcePoint" />
            <mxPoint x="520" y="480" as="targetPoint" />
          </mxGeometry>
        </mxCell>
        <mxCell id="B6isz3c-7Hk3uSjzke4N-30" value="" style="endArrow=none;html=1;rounded=0;" edge="1" parent="1">
          <mxGeometry width="50" height="50" relative="1" as="geometry">
            <mxPoint x="120" y="480" as="sourcePoint" />
            <mxPoint x="520" y="480" as="targetPoint" />
          </mxGeometry>
        </mxCell>
        <mxCell id="B6isz3c-7Hk3uSjzke4N-31" value="" style="endArrow=none;html=1;rounded=0;" edge="1" parent="1">
          <mxGeometry width="50" height="50" relative="1" as="geometry">
            <mxPoint x="40" y="480" as="sourcePoint" />
            <mxPoint x="120" y="480" as="targetPoint" />
          </mxGeometry>
        </mxCell>
        <mxCell id="B6isz3c-7Hk3uSjzke4N-32" value="" style="endArrow=none;html=1;rounded=0;" edge="1" parent="1">
          <mxGeometry width="50" height="50" relative="1" as="geometry">
            <mxPoint x="40" y="901.3793103448276" as="sourcePoint" />
            <mxPoint x="40" y="480" as="targetPoint" />
          </mxGeometry>
        </mxCell>
        <mxCell id="B6isz3c-7Hk3uSjzke4N-33" value="" style="endArrow=none;html=1;rounded=0;" edge="1" parent="1">
          <mxGeometry width="50" height="50" relative="1" as="geometry">
            <mxPoint x="40" y="900" as="sourcePoint" />
            <mxPoint x="170" y="900" as="targetPoint" />
          </mxGeometry>
        </mxCell>
        <mxCell id="B6isz3c-7Hk3uSjzke4N-34" value="" style="verticalLabelPosition=bottom;verticalAlign=top;html=1;shape=mxgraph.basic.arc;startAngle=0.0032476092441872753;endAngle=0.5018946122032574;" vertex="1" parent="1">
          <mxGeometry x="150" y="890" width="20" height="20" as="geometry" />
        </mxCell>
        <mxCell id="B6isz3c-7Hk3uSjzke4N-36" value="" style="endArrow=none;html=1;rounded=0;" edge="1" parent="1" source="B6isz3c-7Hk3uSjzke4N-34">
          <mxGeometry width="50" height="50" relative="1" as="geometry">
            <mxPoint x="190" y="880" as="sourcePoint" />
            <mxPoint x="160" y="860" as="targetPoint" />
          </mxGeometry>
        </mxCell>
        <mxCell id="B6isz3c-7Hk3uSjzke4N-37" value="" style="endArrow=none;html=1;rounded=0;" edge="1" parent="1" target="B6isz3c-7Hk3uSjzke4N-34">
          <mxGeometry width="50" height="50" relative="1" as="geometry">
            <mxPoint x="160" y="1080" as="sourcePoint" />
            <mxPoint x="160" y="960" as="targetPoint" />
          </mxGeometry>
        </mxCell>
        <mxCell id="B6isz3c-7Hk3uSjzke4N-38" value="" style="endArrow=none;html=1;rounded=0;" edge="1" parent="1">
          <mxGeometry width="50" height="50" relative="1" as="geometry">
            <mxPoint x="160" y="1080" as="sourcePoint" />
            <mxPoint x="1620" y="1080" as="targetPoint" />
          </mxGeometry>
        </mxCell>
        <mxCell id="B6isz3c-7Hk3uSjzke4N-39" value="" style="endArrow=none;html=1;rounded=0;" edge="1" parent="1">
          <mxGeometry width="50" height="50" relative="1" as="geometry">
            <mxPoint x="1620" y="1080" as="sourcePoint" />
            <mxPoint x="1620" y="870" as="targetPoint" />
          </mxGeometry>
        </mxCell>
        <mxCell id="B6isz3c-7Hk3uSjzke4N-40" value="" style="verticalLabelPosition=bottom;verticalAlign=top;html=1;shape=mxgraph.basic.arc;startAngle=0.0032476092441872753;endAngle=0.5018946122032574;" vertex="1" parent="1">
          <mxGeometry x="670" y="940" width="20" height="20" as="geometry" />
        </mxCell>
        <mxCell id="B6isz3c-7Hk3uSjzke4N-41" value="" style="endArrow=none;html=1;rounded=0;" edge="1" parent="1" source="B6isz3c-7Hk3uSjzke4N-40">
          <mxGeometry width="50" height="50" relative="1" as="geometry">
            <mxPoint x="690" y="940" as="sourcePoint" />
            <mxPoint x="680" y="930" as="targetPoint" />
          </mxGeometry>
        </mxCell>
        <mxCell id="B6isz3c-7Hk3uSjzke4N-42" value="" style="endArrow=none;html=1;rounded=0;" edge="1" parent="1" source="B6isz3c-7Hk3uSjzke4N-43">
          <mxGeometry width="50" height="50" relative="1" as="geometry">
            <mxPoint x="120" y="860" as="sourcePoint" />
            <mxPoint x="120" y="830" as="targetPoint" />
          </mxGeometry>
        </mxCell>
        <mxCell id="B6isz3c-7Hk3uSjzke4N-43" value="" style="verticalLabelPosition=bottom;verticalAlign=top;html=1;shape=mxgraph.basic.arc;startAngle=0.0032476092441872753;endAngle=0.5018946122032574;" vertex="1" parent="1">
          <mxGeometry x="110" y="890" width="20" height="20" as="geometry" />
        </mxCell>
        <mxCell id="B6isz3c-7Hk3uSjzke4N-44" value="" style="endArrow=none;html=1;rounded=0;" edge="1" parent="1">
          <mxGeometry width="50" height="50" relative="1" as="geometry">
            <mxPoint x="120" y="1040" as="sourcePoint" />
            <mxPoint x="119.83" y="910" as="targetPoint" />
          </mxGeometry>
        </mxCell>
        <mxCell id="B6isz3c-7Hk3uSjzke4N-45" value="" style="verticalLabelPosition=bottom;verticalAlign=top;html=1;shape=mxgraph.basic.arc;startAngle=0.0032476092441872753;endAngle=0.5018946122032574;rotation=-90;" vertex="1" parent="1">
          <mxGeometry x="150" y="1030" width="20" height="20" as="geometry" />
        </mxCell>
        <mxCell id="B6isz3c-7Hk3uSjzke4N-46" value="" style="endArrow=none;html=1;rounded=0;" edge="1" parent="1" target="B6isz3c-7Hk3uSjzke4N-45">
          <mxGeometry width="50" height="50" relative="1" as="geometry">
            <mxPoint x="120" y="1040" as="sourcePoint" />
            <mxPoint x="220" y="940" as="targetPoint" />
          </mxGeometry>
        </mxCell>
        <mxCell id="B6isz3c-7Hk3uSjzke4N-47" value="" style="endArrow=none;html=1;rounded=0;" edge="1" parent="1">
          <mxGeometry width="50" height="50" relative="1" as="geometry">
            <mxPoint x="170" y="1040" as="sourcePoint" />
            <mxPoint x="680" y="1040" as="targetPoint" />
          </mxGeometry>
        </mxCell>
        <mxCell id="B6isz3c-7Hk3uSjzke4N-48" value="" style="endArrow=none;html=1;rounded=0;" edge="1" parent="1" target="B6isz3c-7Hk3uSjzke4N-40">
          <mxGeometry width="50" height="50" relative="1" as="geometry">
            <mxPoint x="680" y="1040" as="sourcePoint" />
            <mxPoint x="690" y="970" as="targetPoint" />
          </mxGeometry>
        </mxCell>
      </root>
    </mxGraphModel>
  </diagram>
</mxfile>
